<svg xmlns="http://www.w3.org/2000/svg" viewBox="0 0 48 48" xmlns:v="https://vecta.io/nano"><path fill="#ea4335" d="M12.47 24l7.13-4.11c1.68-1.01 2.26-3.1 1.26-4.78-1.01-1.68-3.1-2.26-4.78-1.26L3.83 20.98 12.47 24z"/><path fill="#4285f4" d="M17.84 34.64c1.17 0 2.43-.67 3.02-1.76 1.01-1.68.42-3.86-1.26-4.78L7.27 20.98c-1.68-1.01-3.86-.42-4.78 1.26-1.01 1.68-.42 3.86 1.26 4.78l12.33 7.13c.58.33 1.17.49 1.76.49z"/><path fill="#fbbc04" d="M30.16 34.64c.58 0 1.17-.17 1.76-.5l12.33-7.13-8.64-3.1-7.21 4.19c-1.68 1.01-2.26 3.1-1.26 4.78.59 1.09 1.77 1.76 3.02 1.76z"/><path fill="#0f9d58" d="M42.49 27.52c1.17 0 2.43-.67 3.02-1.76 1.01-1.68.42-3.86-1.26-4.78l-12.32-7.13c-1.68-1.01-3.86-.42-4.78 1.26-1.01 1.68-.42 3.86 1.26 4.78l12.32 7.13c.5.33 1.09.5 1.76.5z"/></svg>