<svg xmlns="http://www.w3.org/2000/svg" viewBox="0 0 468 149.6"><defs><style>.cls-1{fill:#fff;}.cls-2{fill:#4285f4;}</style></defs><title>Asset 1</title><g id="Layer_2" data-name="Layer 2"><g id="Layer_1-2" data-name="Layer 1"><path class="cls-1" d="M0,3.2H29.2L58.8,89.6,64,107.8h1.6l5.6-18.2L102,3.2h29.2L79,146.4H50.6Z"/><path class="cls-1" d="M150.4,3.2h52.2A52.17,52.17,0,0,1,227.5,9a41.91,41.91,0,0,1,16.9,16.1,45.43,45.43,0,0,1,6,23.3,37.74,37.74,0,0,1-8.7,24.5,49.49,49.49,0,0,1-21.9,15.5l-.2,1.4,38.4,55v1.6H227L190,92.6H177.4v53.8h-27Zm52,64.6q9.19,0,15-5.6A18.92,18.92,0,0,0,223.2,48a19.64,19.64,0,0,0-5.5-14q-5.5-5.8-14.9-5.8H177.4V67.8Z"/><path class="cls-1" d="M307.7,139.9A73.4,73.4,0,0,1,270,74.8,73.4,73.4,0,0,1,307.7,9.7,76.12,76.12,0,0,1,345.6,0a77.86,77.86,0,0,1,30.7,5.9,68.83,68.83,0,0,1,23.9,16.7L381.6,40.8a48.67,48.67,0,0,0-15.9-11.4,50.43,50.43,0,0,0-20.3-3.8,49,49,0,0,0-24.2,6.1,45.22,45.22,0,0,0-17.5,17.4,50.53,50.53,0,0,0-6.5,25.7,50,50,0,0,0,6.6,25.7,45.78,45.78,0,0,0,17.7,17.4,49.59,49.59,0,0,0,24.3,6.1q20,0,32.8-11.8a33.67,33.67,0,0,0,7-9.2A46,46,0,0,0,390,90.8H345v-23h70.2a52.18,52.18,0,0,1,1.4,12.6,79,79,0,0,1-4.3,26.4,59.06,59.06,0,0,1-13.1,21.4A63.67,63.67,0,0,1,376,144.1a80.37,80.37,0,0,1-30.4,5.5A76.12,76.12,0,0,1,307.7,139.9Z"/><path class="cls-2" d="M438.3,142.5a16.76,16.76,0,0,1-5.1-12.3,16.43,16.43,0,0,1,5.1-12.2,17.63,17.63,0,0,1,24.6,0,16.43,16.43,0,0,1,5.1,12.2,17.39,17.39,0,0,1-29.7,12.3Z"/></g></g></svg>