<?xml version="1.0" encoding="utf-8"?>
<!-- Generator: Adobe Illustrator 21.1.0, SVG Export Plug-In . SVG Version: 6.00 Build 0)  -->
<svg version="1.1" id="Layer_1" xmlns="http://www.w3.org/2000/svg" xmlns:xlink="http://www.w3.org/1999/xlink" x="0px" y="0px"
	 viewBox="0 0 180 166" style="enable-background:new 0 0 180 166;" xml:space="preserve">
<style type="text/css">
	.st0{clip-path:url(#SVGID_2_);fill:url(#SVGID_3_);}
</style>
<g>
	<g>
		<g>
			<defs>
				<path id="SVGID_1_" d="M79.9,138.8c-0.7,0-2.3,0.3-3.6,1.2c-0.6,0.4-1,1-0.9,1.8c0.1,0.9,0.8,1.2,1.7,1.2c1.2,0.1,2.7-0.2,3.8-1
					c0.6-0.4,1.1-1.2,1-1.9C81.7,139.2,80.9,138.8,79.9,138.8L79.9,138.8 M102.2,138.9c-0.9,0.6-1.5,1.6-1.3,2.3
					c0.2,1,1.1,1.4,2.3,1.4c1.5,0,3.4-0.6,4.5-1.4c0.8-0.6,1.4-1.4,1.1-2.3c-0.3-1-1.3-1.3-2.1-1.4c-0.1,0-0.1,0-0.2,0
					C105.4,137.5,103.6,138,102.2,138.9 M88.8,135.8c-0.7,0.6-1,1.5-0.8,2.1c0.3,0.9,1.1,1,1.8,1c1.5,0,4.9-1,6.5-2.6
					c0.5-0.5,0.8-1.3,0.6-1.9c-0.2-0.8-1.1-1.1-1.8-1.1C93.7,133.2,90.3,134.4,88.8,135.8 M59.4,133.8c-0.7,0.4-1.2,1-1.1,1.8
					c0.1,0.9,0.8,1.3,1.7,1.4c1.3,0.1,2.9-0.1,4.2-0.8c0.7-0.4,1.3-1.2,1.2-2c-0.1-1-1-1.4-2-1.4c0,0,0,0-0.1,0
					C62.4,132.7,60.8,133,59.4,133.8 M70.9,130.1c-0.8,0.7-1.2,1.6-1,2.3c0.3,1,1.1,1.2,2,1.2c1.6,0.1,5.5-0.8,7.4-2.6
					c0.6-0.5,1-1.4,0.8-2.1c-0.2-0.9-1.1-1.3-1.9-1.4c-0.1,0-0.1,0-0.2,0C76.3,127.6,72.6,128.8,70.9,130.1 M109.3,125.1
					c-1.7,0.2-5.3,2.1-6.7,3.8c-0.7,0.8-0.9,1.8-0.5,2.5c0.5,1,1.3,0.9,2.1,0.8c1.6-0.2,5.2-1.8,6.8-3.9c0.5-0.6,0.7-1.5,0.4-2.2
					c-0.3-0.7-1.1-1-1.8-1C109.5,125.1,109.4,125.1,109.3,125.1 M72.6,115.2c-0.8,0.8-1.2,1.7-0.9,2.5c0.4,1.1,1.3,1.2,2.1,1.2
					c1.7,0,5.7-1.2,7.6-3.1c0.6-0.6,1-1.5,0.7-2.3c-0.3-0.9-1.3-1.3-2.1-1.3C78.3,112.2,74.3,113.7,72.6,115.2 M114,71.4
					c-1,0.5-2.1,1.2-3,2.2c-0.9,0.9-1.7,2-2,3.1c-0.2,0.8-0.1,1.7,0.3,2.2c0.5,0.6,1.4,0.7,2.1,0.6c1.2-0.2,2.5-1,3.6-2.2
					c1.1-1.1,2-2.6,2.2-3.9c0.2-1-0.1-1.7-0.5-2c-0.3-0.3-0.7-0.4-1.1-0.4C115.2,71,114.6,71.1,114,71.4 M118.4,66.9
					c0,1,0.7,1.8,1.7,1.8c2,0,3.9-2.4,3.9-4.2c0-1-0.6-1.8-1.7-1.8C120.3,62.6,118.4,65,118.4,66.9 M77.7,64.9
					c0,1.2,1.1,1.7,2.2,1.7c2.6,0,8-3.4,8-6.2c0-1.3-1.2-1.7-2.3-1.7C83.1,58.6,77.7,62.1,77.7,64.9 M92.6,54L92.6,54
					c-1.2,0.5-2.7,1.8-2.7,3.1c0,0.9,0.8,1.3,1.6,1.3c1.7,0,4.4-1.6,4.4-3.5c0-0.9-0.8-1.3-1.6-1.3C93.7,53.6,93.1,53.8,92.6,54
					 M112,51c-0.5,0.6-1,1.3-1.4,1.9c-0.4,0.7-0.6,1.3-0.6,1.9c-0.1,1,0.5,1.8,1.5,1.8c0.6,0,1.3-0.2,1.9-0.6c0.7-0.4,1.3-1,1.9-1.6
					s1.1-1.3,1.4-2c0.4-0.7,0.6-1.4,0.6-2c0-1-0.6-1.5-1.6-1.5C114.5,48.9,113.1,49.8,112,51 M116.9,45.1c0,0.8,0.5,1.5,1.3,1.5
					c1.8,0,3.6-2.7,3.6-4.4c0-0.8-0.5-1.5-1.3-1.5C118.7,40.7,116.9,43.5,116.9,45.1 M83.7,44.7c0,1.1,0.9,1.6,1.9,1.6
					c2.8,0.1,8.5-3.2,8.6-6.3c0-1.1-0.9-1.6-1.9-1.7h-0.1C89.4,38.5,83.8,41.7,83.7,44.7 M96.6,37.1c-0.1,1,0.8,1.5,1.7,1.6
					c2.3,0.2,7.1-1.9,7.3-4.5c0.1-1-0.8-1.5-1.7-1.6c-0.1,0-0.2,0-0.3,0C101.2,32.6,96.8,34.6,96.6,37.1 M109.3,31.3
					c-0.1,0.9,0.8,1.3,1.5,1.4c1.7,0.2,5-1.2,5.2-3.2c0.1-0.9-0.8-1.4-1.5-1.4c-0.1,0-0.2,0-0.3,0C112.4,28.2,109.5,29.5,109.3,31.3
					 M126.1,23.6c-0.1,0.1-0.2,0.3,0,0.5c15.8,17.6,9.3,43.2-2.1,56.4c-10.1,11.7-23.1,19.9-34.9,26.3c-0.9,0.5-2.2,1.1-2.9,1.8
					c-1.1,1.1-1.4,2.1-0.9,3.2c0.5,1,1.4,1.4,3,1.2c0.9-0.1,2.9-0.8,4.2-1.4c11-5.6,22.5-13.4,31.4-23.3
					c10.9-12.2,17.8-27.6,15-46.2c0.2,0.3,0.4,0.5,0.5,0.7c5.9,14.7,1,33.3-12.2,49.7c-9.3,11.6-22.7,22.1-39.3,29.5
					c-1.3,0.6-3.2,1.5-3.9,3c-0.3,0.7-0.3,1.6,0,2.2c0.3,0.5,0.8,0.9,1.5,1c2.1,0.1,4.2-1,6-1.9c26.5-13.1,55.4-37,53.8-72.4
					c0.1,0.4,0.3,0.7,0.4,1c2.9,14.5-0.4,27.4-6.5,38.2c-5.2,9.2-12.4,17-19.6,22.9c-3.9,3.2-5.4,5-4.5,6.7c0.9,1.6,3.4,0.8,4.9,0
					c2.9-1.7,5.5-4.3,7.5-6.3c11.9-12,20.7-24.9,22.7-46.5c0.1,1,0.3,2.2,0.3,2.9c0.4,11-1.7,20.9-5.8,29.5
					c-6.1,13-16.4,23.3-28.6,29.8c-2.5,1.4-3.5,2.9-2.9,4.4c0.3,0.8,1.1,1.3,2,1.4c1.1,0.1,2.1-0.2,3.1-0.8c22.3-12,36-34.4,36-60
					c0-18.7-8.2-38.6-26.3-52.9c-0.5-0.4-1.1-0.8-1.6-0.9h-0.1C126.3,23.4,126.2,23.5,126.1,23.6 M73.5,20
					C58,28.1,45.3,39.6,37.1,53.9c-6.8,11.9-10.5,25.6-9.9,40.8c0-0.1-0.2-0.6-0.3-1c-1.3-5-2-10.2-2-15.4c0-7.1,1.4-14,3.8-20.5
					c3.1-8.3,8.1-16,14.1-22.6c2-2.2,6.1-5.6,7.2-6.8c0.8-0.9,1.3-2.1,0.9-3c-0.4-0.7-1-0.9-1.8-0.9c-3.4,0-8.5,5.2-10.7,7.6
					c-11.4,12.3-18,28.4-18,45.2c0,19.7,8.4,40.5,27.6,54.7c0.8,0.6,2.3,1.5,3.5,2c0.2,0.1,0.5,0,0.6-0.2c0.1-0.1,0.1-0.4-0.1-0.6
					c-0.9-1-1.5-1.8-1.7-2.6c-0.2-0.7,0-1.7,0-2.1c1.6-7.5,9.1-12.6,16.9-18.1c4.9-3.4,25.9-14.8,35.4-22.5c3.1-2.5,4.4-3.9,4.5-5.3
					c0.1-0.7-0.2-1.4-0.6-1.8c-0.3-0.3-0.7-0.5-1.2-0.5c-1.6-0.2-3.4,0.4-5.6,2.1c-11,8.8-27.5,17.5-39.1,26.6
					c-6.8,5.3-11.9,10.8-13.2,16.7c-0.1-0.1-0.3-0.2-0.4-0.3c1.7-21.6,30.4-35.8,45.2-48.1c3.6-3,14.9-11.8,16.6-15.7
					c0.6-1.3,0.3-2.6-0.5-3.1c-0.6-0.4-1.4-0.6-2.2-0.4c-1.7,0.4-3.8,2.1-6,4.2c-18.3,17.3-33.5,25-43.9,36.1
					c-5.8,6.2-10.1,13.4-12.6,23.8c-0.1-0.1-0.3-0.3-0.4-0.4c0.9-15.8,11.1-31.3,23.2-42.1c4.3-3.8,7.1-6.1,8.9-7.7
					c1-1,1.8-2.4,1-3.8c-0.6-1-1.8-1.2-2.8-1c-1.8,0.2-3,1.2-4.2,2.2c-8.5,6.7-15.7,15-20.9,24.5c-4.1,7.5-7.1,15.6-8.4,24.2
					c-0.1-0.1-0.3-0.3-0.3-0.4C40.6,93.6,51.7,76,67.1,62c3.7-3.4,7-5.6,10.9-8.6c3-2.4,3.6-4.4,2.8-5.7c-0.7-1.2-2.1-1.2-3.7-0.7
					c-3.2,1-6.5,3.9-10.8,7.8c-9.7,8.7-17.5,17.9-22.7,29c-4,8.5-6.5,18.2-7.2,29.6c-0.1-0.1-0.3-0.4-0.3-0.5
					c-0.3-2.9-0.2-6.8,0-9.5c0.8-11.3,2.5-34.7,34.7-60.9c5.7-4.7,15.2-10.2,22-13.6c2.1-1,4.1-2,6-3.3c1.1-0.8,1.8-1.9,1.4-3
					c-0.4-1.2-1.4-1.4-2.4-1.4c-2.2,0-4,1-5.8,1.9c-14.9,7.4-32,18.4-44.1,35C38.5,71,32.2,86.8,32,106.7c-0.1-0.3-0.1-0.3-0.3-0.6
					c-0.8-4.8-1-9.8-0.9-13.2c0.6-31.2,19-52.9,44.4-67.8c2.1-1.3,4.3-2.6,4.3-4.5c0-1.2-0.9-1.9-2.1-1.9S75.2,19.1,73.5,20
					 M58.1,18c-2.5,0.3-5.1,1.9-5.7,3.7c-0.1,0.4-0.2,1,0.1,1.6c0.3,0.5,0.8,0.6,1.3,0.6c2,0.2,5.2-1.4,6.2-3.3
					c0.3-0.5,0.5-1.2,0.1-1.8c-0.2-0.4-0.8-0.8-1.7-0.8C58.3,17.9,58.2,17.9,58.1,18 M108.2,20c-0.1,1.2,1.4,1.6,2.3,1.6
					c1.7,0.1,5.6-0.9,5.8-3c0.1-1.2-1.4-1.6-2.3-1.6c-0.1,0-0.2,0-0.3,0C111.8,16.9,108.4,18,108.2,20 M67.3,14.1
					c-1.8,0-3.8,0.9-4.4,2.2c-0.1,0.3-0.3,0.7-0.1,1.1s0.5,0.5,0.9,0.6c1.4,0.3,3.8-0.6,4.6-1.9c0.2-0.4,0.4-0.8,0.2-1.3
					C68.6,14.5,68.1,14.1,67.3,14.1L67.3,14.1 M86,15.9c0.1,1,1,1.4,1.8,1.5c2.1,0.2,7.4-1,7.3-3.5c0-1.1-1-1.4-1.8-1.5
					c-0.2,0-0.4,0-0.6,0C90.1,12.5,85.8,14,86,15.9"/>
			</defs>
			<clipPath id="SVGID_2_">
				<use xlink:href="#SVGID_1_"  style="overflow:visible;"/>
			</clipPath>
			
				<radialGradient id="SVGID_3_" cx="-146.9397" cy="-19.1263" r="3.8176" gradientTransform="matrix(-24.3991 24.3991 -24.3991 -24.3991 -3926.0718 3141.1768)" gradientUnits="userSpaceOnUse">
				<stop  offset="0" style="stop-color:#EE7518"/>
				<stop  offset="0.55" style="stop-color:#D4007F"/>
				<stop  offset="1" style="stop-color:#6C247D"/>
			</radialGradient>
			<polygon class="st0" points="219.8,77.8 87.4,210.2 -45,77.8 87.4,-54.6 			"/>
		</g>
	</g>
</g>
</svg>
