<svg width="133.9" height="130.62" viewBox="112.52 119.05 133.9 130.62" xmlns="http://www.w3.org/2000/svg"><radialGradient id="b" cx="-146.94" cy="-19.126" r="3.818" gradientTransform="scale(-34.505) rotate(-45 -58.062 -181.188)" gradientUnits="userSpaceOnUse"><stop stop-color="#EE7518" offset="0"/><stop stop-color="#D4007F" offset=".55"/><stop stop-color="#6C247D" offset="1"/></radialGradient><clipPath id="a"><path d="M172.02 245.45c-.7 0-2.3.3-3.6 1.2-.6.4-1 1-.9 1.8.1.9.8 1.2 1.7 1.2 1.2.1 2.7-.2 3.8-1 .6-.4 1.1-1.2 1-1.9-.2-.9-1-1.3-2-1.3m22.3.1c-.9.6-1.5 1.6-1.3 2.3.2 1 1.1 1.4 2.3 1.4 1.5 0 3.4-.6 4.5-1.4.8-.6 1.4-1.4 1.1-2.3-.3-1-1.3-1.3-2.1-1.4h-.2c-1.1 0-2.9.5-4.3 1.4m-13.4-3.1c-.7.6-1 1.5-.8 2.1.3.9 1.1 1 1.8 1 1.5 0 4.9-1 6.5-2.6.5-.5.8-1.3.6-1.9-.2-.8-1.1-1.1-1.8-1.1-1.4-.1-4.8 1.1-6.3 2.5m-29.4-2c-.7.4-1.2 1-1.1 1.8.1.9.8 1.3 1.7 1.4 1.3.1 2.9-.1 4.2-.8.7-.4 1.3-1.2 1.2-2-.1-1-1-1.4-2-1.4h-.1c-.9-.1-2.5.2-3.9 1m11.5-3.7c-.8.7-1.2 1.6-1 2.3.3 1 1.1 1.2 2 1.2 1.6.1 5.5-.8 7.4-2.6.6-.5 1-1.4.8-2.1-.2-.9-1.1-1.3-1.9-1.4h-.2c-1.7.1-5.4 1.3-7.1 2.6m38.4-5c-1.7.2-5.3 2.1-6.7 3.8-.7.8-.9 1.8-.5 2.5.5 1 1.3.9 2.1.8 1.6-.2 5.2-1.8 6.8-3.9.5-.6.7-1.5.4-2.2s-1.1-1-1.8-1h-.3m-36.7-9.9c-.8.8-1.2 1.7-.9 2.5.4 1.1 1.3 1.2 2.1 1.2 1.7 0 5.7-1.2 7.6-3.1.6-.6 1-1.5.7-2.3-.3-.9-1.3-1.3-2.1-1.3-1.7 0-5.7 1.5-7.4 3m41.4-43.8c-1 .5-2.1 1.2-3 2.2-.9.9-1.7 2-2 3.1-.2.8-.1 1.7.3 2.2.5.6 1.4.7 2.1.6 1.2-.2 2.5-1 3.6-2.2 1.1-1.1 2-2.6 2.2-3.9.2-1-.1-1.7-.5-2-.3-.3-.7-.4-1.1-.4s-1 .1-1.6.4m4.4-4.5c0 1 .7 1.8 1.7 1.8 2 0 3.9-2.4 3.9-4.2 0-1-.6-1.8-1.7-1.8-2-.1-3.9 2.3-3.9 4.2m-40.7-2c0 1.2 1.1 1.7 2.2 1.7 2.6 0 8-3.4 8-6.2 0-1.3-1.2-1.7-2.3-1.7-2.5-.1-7.9 3.4-7.9 6.2m14.9-10.9c-1.2.5-2.7 1.8-2.7 3.1 0 .9.8 1.3 1.6 1.3 1.7 0 4.4-1.6 4.4-3.5 0-.9-.8-1.3-1.6-1.3-.6 0-1.2.2-1.7.4m19.4-3c-.5.6-1 1.3-1.4 1.9-.4.7-.6 1.3-.6 1.9-.1 1 .5 1.8 1.5 1.8.6 0 1.3-.2 1.9-.6.7-.4 1.3-1 1.9-1.6s1.1-1.3 1.4-2c.4-.7.6-1.4.6-2 0-1-.6-1.5-1.6-1.5-1.2 0-2.6.9-3.7 2.1m4.9-5.9c0 .8.5 1.5 1.3 1.5 1.8 0 3.6-2.7 3.6-4.4 0-.8-.5-1.5-1.3-1.5-1.8 0-3.6 2.8-3.6 4.4m-33.2-.4c0 1.1.9 1.6 1.9 1.6 2.8.1 8.5-3.2 8.6-6.3 0-1.1-.9-1.6-1.9-1.7h-.1c-2.8.2-8.4 3.4-8.5 6.4m12.9-7.6c-.1 1 .8 1.5 1.7 1.6 2.3.2 7.1-1.9 7.3-4.5.1-1-.8-1.5-1.7-1.6h-.3c-2.4 0-6.8 2-7 4.5m12.7-5.8c-.1.9.8 1.3 1.5 1.4 1.7.2 5-1.2 5.2-3.2.1-.9-.8-1.4-1.5-1.4h-.3c-1.8.1-4.7 1.4-4.9 3.2m16.8-7.7c-.1.1-.2.3 0 .5 15.8 17.6 9.3 43.2-2.1 56.4-10.1 11.7-23.1 19.9-34.9 26.3-.9.5-2.2 1.1-2.9 1.8-1.1 1.1-1.4 2.1-.9 3.2.5 1 1.4 1.4 3 1.2.9-.1 2.9-.8 4.2-1.4 11-5.6 22.5-13.4 31.4-23.3 10.9-12.2 17.8-27.6 15-46.2.2.3.4.5.5.7 5.9 14.7 1 33.3-12.2 49.7-9.3 11.6-22.7 22.1-39.3 29.5-1.3.6-3.2 1.5-3.9 3-.3.7-.3 1.6 0 2.2.3.5.8.9 1.5 1 2.1.1 4.2-1 6-1.9 26.5-13.1 55.4-37 53.8-72.4.1.4.3.7.4 1 2.9 14.5-.4 27.4-6.5 38.2-5.2 9.2-12.4 17-19.6 22.9-3.9 3.2-5.4 5-4.5 6.7.9 1.6 3.4.8 4.9 0 2.9-1.7 5.5-4.3 7.5-6.3 11.9-12 20.7-24.9 22.7-46.5.1 1 .3 2.2.3 2.9.4 11-1.7 20.9-5.8 29.5-6.1 13-16.4 23.3-28.6 29.8-2.5 1.4-3.5 2.9-2.9 4.4.3.8 1.1 1.3 2 1.4 1.1.1 2.1-.2 3.1-.8 22.3-12 36-34.4 36-60 0-18.7-8.2-38.6-26.3-52.9-.5-.4-1.1-.8-1.6-.9h-.1c0 .1-.1.2-.2.3m-52.6-3.6c-15.5 8.1-28.2 19.6-36.4 33.9-6.8 11.9-10.5 25.6-9.9 40.8 0-.1-.2-.6-.3-1-1.3-5-2-10.2-2-15.4 0-7.1 1.4-14 3.8-20.5 3.1-8.3 8.1-16 14.1-22.6 2-2.2 6.1-5.6 7.2-6.8.8-.9 1.3-2.1.9-3-.4-.7-1-.9-1.8-.9-3.4 0-8.5 5.2-10.7 7.6-11.4 12.3-18 28.4-18 45.2 0 19.7 8.4 40.5 27.6 54.7.8.6 2.3 1.5 3.5 2 .2.1.5 0 .6-.2.1-.1.1-.4-.1-.6-.9-1-1.5-1.8-1.7-2.6-.2-.7 0-1.7 0-2.1 1.6-7.5 9.1-12.6 16.9-18.1 4.9-3.4 25.9-14.8 35.4-22.5 3.1-2.5 4.4-3.9 4.5-5.3.1-.7-.2-1.4-.6-1.8-.3-.3-.7-.5-1.2-.5-1.6-.2-3.4.4-5.6 2.1-11 8.8-27.5 17.5-39.1 26.6-6.8 5.3-11.9 10.8-13.2 16.7-.1-.1-.3-.2-.4-.3 1.7-21.6 30.4-35.8 45.2-48.1 3.6-3 14.9-11.8 16.6-15.7.6-1.3.3-2.6-.5-3.1-.6-.4-1.4-.6-2.2-.4-1.7.4-3.8 2.1-6 4.2-18.3 17.3-33.5 25-43.9 36.1-5.8 6.2-10.1 13.4-12.6 23.8l-.4-.4c.9-15.8 11.1-31.3 23.2-42.1 4.3-3.8 7.1-6.1 8.9-7.7 1-1 1.8-2.4 1-3.8-.6-1-1.8-1.2-2.8-1-1.8.2-3 1.2-4.2 2.2-8.5 6.7-15.7 15-20.9 24.5-4.1 7.5-7.1 15.6-8.4 24.2-.1-.1-.3-.3-.3-.4.9-24.1 12-41.7 27.4-55.7 3.7-3.4 7-5.6 10.9-8.6 3-2.4 3.6-4.4 2.8-5.7-.7-1.2-2.1-1.2-3.7-.7-3.2 1-6.5 3.9-10.8 7.8-9.7 8.7-17.5 17.9-22.7 29-4 8.5-6.5 18.2-7.2 29.6-.1-.1-.3-.4-.3-.5-.3-2.9-.2-6.8 0-9.5.8-11.3 2.5-34.7 34.7-60.9 5.7-4.7 15.2-10.2 22-13.6 2.1-1 4.1-2 6-3.3 1.1-.8 1.8-1.9 1.4-3-.4-1.2-1.4-1.4-2.4-1.4-2.2 0-4 1-5.8 1.9-14.9 7.4-32 18.4-44.1 35-9.4 12.9-15.7 28.7-15.9 48.6-.1-.3-.1-.3-.3-.6-.8-4.8-1-9.8-.9-13.2.6-31.2 19-52.9 44.4-67.8 2.1-1.3 4.3-2.6 4.3-4.5 0-1.2-.9-1.9-2.1-1.9s-2.2.4-3.9 1.3m-15.4-2c-2.5.3-5.1 1.9-5.7 3.7-.1.4-.2 1 .1 1.6.3.5.8.6 1.3.6 2 .2 5.2-1.4 6.2-3.3.3-.5.5-1.2.1-1.8-.2-.4-.8-.8-1.7-.8-.1-.1-.2-.1-.3 0m50.1 2c-.1 1.2 1.4 1.6 2.3 1.6 1.7.1 5.6-.9 5.8-3 .1-1.2-1.4-1.6-2.3-1.6h-.3c-1.9-.1-5.3 1-5.5 3m-40.9-5.9c-1.8 0-3.8.9-4.4 2.2-.1.3-.3.7-.1 1.1s.5.5.9.6c1.4.3 3.8-.6 4.6-1.9.2-.4.4-.8.2-1.3.1-.3-.4-.7-1.2-.7m18.7 1.8c.1 1 1 1.4 1.8 1.5 2.1.2 7.4-1 7.3-3.5 0-1.1-1-1.4-1.8-1.5h-.6c-2.6.1-6.9 1.6-6.7 3.5"/></clipPath><path class="st0" clip-path="url(#a)" fill="url(#b)" d="M311.92 184.45l-132.4 132.4-132.4-132.4L179.95 52.047z"/></svg>